<?xml version="1.0" encoding="iso-8859-1"?>
<!-- Generator: Adobe Illustrator 16.0.0, SVG Export Plug-In . SVG Version: 6.00 Build 0)  -->
<!DOCTYPE svg PUBLIC "-//W3C//DTD SVG 1.1//EN" "http://www.w3.org/Graphics/SVG/1.1/DTD/svg11.dtd">
<svg xmlns="http://www.w3.org/2000/svg" xmlns:xlink="http://www.w3.org/1999/xlink" version="1.1" id="Capa_1" x="0px" y="0px" width="512px" height="512px" viewBox="0 0 978 978" style="enable-background:new 0 0 978 978;" xml:space="preserve">
<g>
	<path d="M939.3,298.6c-24.6-58.2-59.899-110.5-104.8-155.4C789.7,98.3,737.101,63,678.9,38.4C618.7,13,554.7,0,488.7,0   C422.9,0,359,13,298.8,38.4C240.6,63,188.3,98.3,143.4,143.2c-44.9,44.9-80.2,97.2-104.8,155.4C13.1,358.9,0.2,423,0.2,489   s12.9,130,38.4,190.4C63.2,737.6,98.5,789.9,143.4,834.8c44.9,44.9,97.2,80.2,155.399,104.8C359,965,422.8,978,488.7,978   c66-0.1,130-13,190.2-38.4c58.2-24.6,110.7-59.899,155.6-104.8c44.9-44.899,80.2-97.2,104.9-155.399C964.8,619,977.8,555,977.8,489   S964.8,358.9,939.3,298.6z M642.5,108.7c2,0.8,3.9,1.6,5.9,2.4c48.8,20.6,92.7,50.2,130.3,87.9c37.7,37.7,67.2,81.5,87.9,130.3   c0.3,0.8,0.699,1.6,1,2.4L663,424.5c-2.7-7.4-6-14.7-9.7-21.7c-21.5-41-59.1-73.7-102.8-89c-0.6-0.2-1.1-0.4-1.7-0.6   C548.7,313.2,642.5,108.7,642.5,108.7z M111.4,329.4c20.6-48.8,50.2-92.7,87.9-130.3c37.7-37.7,81.5-67.2,130.3-87.9   c2-0.8,3.899-1.6,5.899-2.4l93.7,204.5c-15.6,5.9-30.4,12.8-44.3,22.2c-13.4,9.2-25.601,20.1-36.2,32.3   c-9.3,10.7-17.4,22.5-23.9,35c-3.699,7-6.899,14.3-9.699,21.7L110.5,331.7C110.7,331,111,330.2,111.4,329.4z M335.4,869.2   c-1.9-0.8-3.9-1.601-5.8-2.4c-48.8-20.6-92.7-50.2-130.3-87.899c-37.7-37.7-67.2-81.5-87.9-130.301c-0.7-1.6-1.3-3.199-2-4.8   l204.3-94c-0.4,0.2,5.1,13,5.6,14.2c7.601,17.3,18,33.5,30.601,47.7c0.2,0.2,0.399,0.399,0.6,0.6c11,12.3,23.5,23.101,37.3,32.101   c12.601,8.3,26.2,15,40.4,20C428.101,664.4,335.4,869.2,335.4,869.2z M411.2,567.4c-21-20.801-32.5-48.601-32.6-78.2   C378.5,459.6,390,431.8,410.8,410.9c20.801-20.9,48.5-32.5,78-32.601c30,0.1,57.5,11.7,78.301,32.601   c20.8,21,32.399,48.8,32.3,78.3c-0.101,29.6-11.9,57.3-32.8,78.2c-20.9,20.699-47.9,32.1-77.9,32.199   C459.4,599.5,431.9,588.1,411.2,567.4z M866.601,648.6C846,697.4,816.4,741.3,778.7,778.9C741,816.6,697.2,846.1,648.4,866.8   c-1.9,0.8-3.9,1.601-5.8,2.4l-92.7-204.8c3.7-1.801,7.899-2.9,11.7-4.5c4-1.7,8-3.601,11.899-5.601c7.8-4,15.3-8.6,22.5-13.7   c14.9-10.5,28.3-23.3,39.5-37.699c8.101-10.5,15.101-21.801,20.9-33.801c0.6-1.199,1.2-2.5,1.7-3.699   c2.3-5.101,4.399-10.301,6.199-15.601l204.301,94C867.9,645.4,867.3,647,866.601,648.6z" fill="#a5abc5"/>
</g>
<g>
</g>
<g>
</g>
<g>
</g>
<g>
</g>
<g>
</g>
<g>
</g>
<g>
</g>
<g>
</g>
<g>
</g>
<g>
</g>
<g>
</g>
<g>
</g>
<g>
</g>
<g>
</g>
<g>
</g>
</svg>
