<?xml version="1.0" encoding="utf-8"?>
<!-- Generator: Adobe Illustrator 19.0.0, SVG Export Plug-In . SVG Version: 6.00 Build 0)  -->
<svg xmlns="http://www.w3.org/2000/svg" xmlns:xlink="http://www.w3.org/1999/xlink" version="1.1" id="Layer_1" x="0px" y="0px" viewBox="0 2 98 98" style="enable-background:new 0 2 98 98;" xml:space="preserve" width="512" height="512">
<style type="text/css">
	.st0{fill:url(#SVGID_1_);}
</style>
<linearGradient id="SVGID_1_" gradientUnits="userSpaceOnUse" x1="49" y1="20.5498" x2="49" y2="81.4502">
	<stop offset="0" style="stop-color:#00EFD1"/>
	<stop offset="1" style="stop-color:#00ACEA"/>
</linearGradient>
<path class="st0" d="M76.6,43.5c-2.4-13.1-14-22.9-27.6-22.9c-13.6,0-25.3,9.9-27.7,22.9c-9.9,0.7-17.7,8.9-17.7,19  c0,10.5,8.6,19,19.1,19h52.7c10.5,0,19-8.5,19-19C94.4,52.4,86.5,44.2,76.6,43.5z M75.4,75.5H22.7c-7.2,0-13.1-5.8-13.1-13  c0-7.3,5.7-13,13-13h1.3c1.6,0,2.9-1.2,3-2.7c1-11.3,10.7-20.2,22.1-20.2c11.5,0,21.1,8.8,22,20.1c0.1,1.6,1.4,2.8,3,2.8h1.3  c7.2,0,13.1,5.8,13.1,13C88.4,69.7,82.7,75.5,75.4,75.5z"/>
</svg>
