<svg xmlns="http://www.w3.org/2000/svg" viewBox="0 0 512 512"><path d="M288.495 305.475H82.547v31.347h205.948c22.621 0 41.025 18.404 41.025 41.025 0 20.102-16.354 36.455-36.455 36.455-7.592 0-14.574-2.643-20.09-7.048 8.475-5.014 14.162-14.242 14.162-24.803 0-15.908-12.896-28.803-28.804-28.803-15.773 0-28.577 12.679-28.793 28.401h-.076c0 35.07 28.531 63.601 63.601 63.601 37.386 0 67.802-30.416 67.802-67.802-.001-39.907-32.467-72.373-72.372-72.373zM409.773 66.351c-46.1 0-84.652 32.921-93.392 76.488a56.464 56.464 0 0 0-1.866 14.419c0 .579.183 4.346.183 4.346 2.221 29.129 26.543 52.079 56.241 52.079 31.162 0 56.424-25.262 56.424-56.424 0-26.255-17.933-48.319-42.217-54.618a63.547 63.547 0 0 1 24.626-4.941c39.084 0 70.88 31.797 70.88 70.88 0 43.267-35.201 78.467-78.467 78.467H0v31.347h402.186C462.738 278.393 512 229.13 512 168.578c0-56.368-45.859-102.227-102.227-102.227z" fill="#e6edf4"/><path d="M292.757 159.13c0-31.53-25.651-57.181-57.181-57.181-29.119 0-52.896 23.242-53.793 52.146-.017.357-.023 1.689-.023 1.689.331 12.013 10.15 21.655 22.243 21.655 12.302 0 22.274-9.973 22.274-22.274 0-6.042-2.415-11.514-6.32-15.526 4.049-3.918 9.552-6.344 15.619-6.344 14.245 0 25.834 11.589 25.834 25.834 0 16.251-13.221 29.473-29.472 29.473H82.547v31.347h149.391c33.535.002 60.819-27.282 60.819-60.819z" fill="#e6edf4"/><path d="M256 143.339a25.697 25.697 0 0 1 5.41 15.792 29.302 29.302 0 0 1-5.41 16.987v38.86c21.6-9.343 36.757-30.855 36.757-55.846 0-24.335-15.287-45.156-36.757-53.396v37.603z" fill="#e6edf4"/><path d="M288.495 305.475H256v31.347h32.495c22.621 0 41.025 18.404 41.025 41.025 0 20.102-16.354 36.455-36.455 36.455-7.592 0-14.574-2.643-20.09-7.048 8.475-5.014 14.162-14.242 14.162-24.803 0-15.908-12.896-28.803-28.804-28.803-.786 0-1.562.04-2.333.102v79.935c10.445 7.518 23.241 11.965 37.064 11.965 37.386 0 67.802-30.416 67.802-67.802 0-39.907-32.466-72.373-72.371-72.373z" fill="#93d6f4"/><path d="M409.773 66.351c-46.1 0-84.652 32.921-93.392 76.488a56.464 56.464 0 0 0-1.866 14.419c0 .579.183 4.346.183 4.346 2.221 29.129 26.543 52.079 56.241 52.079 31.162 0 56.424-25.262 56.424-56.424 0-26.255-17.933-48.319-42.217-54.618a63.547 63.547 0 0 1 24.626-4.941c39.084 0 70.88 31.797 70.88 70.88 0 43.267-35.201 78.467-78.467 78.467H256v31.347h146.186C462.738 278.393 512 229.13 512 168.578c0-56.368-45.859-102.227-102.227-102.227z" fill="#e6edf4"/></svg>